<svg xmlns="http://www.w3.org/2000/svg" viewBox="0 0 165.96 122.87"><defs><style>.\30 aeeb2a7-d5a1-40a6-95ae-28bd913df687,.ede2c92e-c4c6-48c3-9c5f-eaf5d249f8e0{fill:#fff;}.ede2c92e-c4c6-48c3-9c5f-eaf5d249f8e0{opacity:0.95;}.\35 b301e28-bfec-4f45-903e-2598514a0470{fill:#fbb03b;}.\37 98c8cb7-e2ea-4866-b085-d79375a12bf9,.\38 1dbda5f-18c2-443d-aa83-ab408fc4ff29,.\39 dbd9ff3-93f1-40e4-a496-cbb5707a826c{fill:#f7931e;}.\37 98c8cb7-e2ea-4866-b085-d79375a12bf9,.\38 1dbda5f-18c2-443d-aa83-ab408fc4ff29,.bdec0214-88f4-42b0-b6d5-c68d245212d7{stroke:#f7931e;stroke-miterlimit:10;}.\37 98c8cb7-e2ea-4866-b085-d79375a12bf9{stroke-width:1.02px;}.bdec0214-88f4-42b0-b6d5-c68d245212d7{fill:none;}.\38 1dbda5f-18c2-443d-aa83-ab408fc4ff29,.bdec0214-88f4-42b0-b6d5-c68d245212d7{stroke-linecap:round;stroke-width:3.05px;}</style></defs><title>Asset 4</title><g id="64b79d8c-62a5-4a9e-8f11-e4bd7fada8e7" data-name="Layer 2"><g id="41d5b5ff-219d-46e7-bd07-cbdad229c2a2" data-name="Layer 1"><path class="ede2c92e-c4c6-48c3-9c5f-eaf5d249f8e0" d="M7.69,120.82q-1.91-2.05-1.91-6.8a29.13,29.13,0,0,1,1.28-8.14,18.79,18.79,0,0,1,4.11-7.47,9.24,9.24,0,0,1,7.18-3.11,7.23,7.23,0,0,1,4.35,1.19,4.15,4.15,0,0,1,1.66,3.63,4.2,4.2,0,0,1-.61,2.43,2.17,2.17,0,0,1-1.91.88,2.5,2.5,0,0,1-2.05-.93,2.88,2.88,0,0,0,1.15-1.3,4.28,4.28,0,0,0,.5-2,2.35,2.35,0,0,0-.52-1.58A2.07,2.07,0,0,0,19.25,97c-1.27,0-2.49.87-3.64,2.61a22.48,22.48,0,0,0-2.79,6.57,29.32,29.32,0,0,0-1.06,7.63A7.63,7.63,0,0,0,12.7,118a3.72,3.72,0,0,0,3.38,1.44,8.28,8.28,0,0,0,3.92-.94,9,9,0,0,0,3.1-2.66l.83.36A9.51,9.51,0,0,1,21.26,120a11.75,11.75,0,0,1-3.78,2.21,11.51,11.51,0,0,1-3.81.7C11,122.87,9,122.19,7.69,120.82Z" transform="translate(-5.78)"/><path class="ede2c92e-c4c6-48c3-9c5f-eaf5d249f8e0" d="M24,121.07a5.45,5.45,0,0,1-1.55-4.32,16.91,16.91,0,0,1,1-5.43,12.83,12.83,0,0,1,3.24-5.17A7.71,7.71,0,0,1,32.35,104q4.6,0,4.61,5.76v0a1.71,1.71,0,0,0,.4,0,7.38,7.38,0,0,0,2.73-.63,13.28,13.28,0,0,0,2.81-1.53l.32,1a8.71,8.71,0,0,1-2.71,1.89,14.17,14.17,0,0,1-3.66,1.09,16.29,16.29,0,0,1-1.47,5.73,9.89,9.89,0,0,1-3.06,3.78,6.88,6.88,0,0,1-4.07,1.33A6.08,6.08,0,0,1,24,121.07Zm7.38-2.86a9,9,0,0,0,1.51-2.7,17.33,17.33,0,0,0,.93-3.8c-.64-.14-1-.65-1-1.51A1.88,1.88,0,0,1,34,108.26a3.74,3.74,0,0,0-.36-1.64,1.1,1.1,0,0,0-1-.45c-.79,0-1.56.58-2.3,1.73a14.86,14.86,0,0,0-1.8,4.14,15.7,15.7,0,0,0-.69,4.25,4.55,4.55,0,0,0,.4,2.32,1.61,1.61,0,0,0,1.44.59A2.4,2.4,0,0,0,31.42,118.21Z" transform="translate(-5.78)"/><path class="ede2c92e-c4c6-48c3-9c5f-eaf5d249f8e0" d="M57.46,121.34a4.24,4.24,0,0,1-1-2.89,9.22,9.22,0,0,1,.18-1.71c.12-.64.24-1.26.37-1.86l.27-1.15c.2-.84.38-1.67.54-2.48a10.32,10.32,0,0,0,.26-2c0-1.22-.44-1.83-1.3-1.83a2.1,2.1,0,0,0-1.66.92A7.1,7.1,0,0,0,54,110.74L51.5,122.3H46.32L49,109.88a3.82,3.82,0,0,0,.11-.9q0-1.59-1.08-1.59a2.19,2.19,0,0,0-1.75.92,6.88,6.88,0,0,0-1.17,2.43L42.61,122.3H37.43l3.81-18h5.19l-.4,1.87a5.7,5.7,0,0,1,4.39-2,3.38,3.38,0,0,1,3.71,3.09,5.83,5.83,0,0,1,5-3.06,4.1,4.1,0,0,1,2.91,1,4,4,0,0,1,1.08,3.06,11.86,11.86,0,0,1-.25,2.32c-.17.86-.41,1.89-.72,3.12-.19.74-.37,1.47-.52,2.17a8.14,8.14,0,0,0-.24,1.68,1.72,1.72,0,0,0,.33,1.12,1.37,1.37,0,0,0,1.11.39,2.16,2.16,0,0,0,1.73-.77,9.19,9.19,0,0,0,1.3-2.4h1.51c-.89,2.64-1.91,4.41-3.08,5.31a5.84,5.84,0,0,1-3.62,1.35A4.08,4.08,0,0,1,57.46,121.34Z" transform="translate(-5.78)"/><path class="ede2c92e-c4c6-48c3-9c5f-eaf5d249f8e0" d="M66.88,121.13a5.69,5.69,0,0,1-1.48-4.34,17.71,17.71,0,0,1,1-5.47,12.78,12.78,0,0,1,3.17-5.17A7.59,7.59,0,0,1,75.12,104c2.64,0,4,1.16,4,3.46a6.45,6.45,0,0,1-1.15,3.71,8.46,8.46,0,0,1-3.06,2.71A9.7,9.7,0,0,1,70.8,115c0,.73-.07,1.21-.07,1.44a3.48,3.48,0,0,0,.61,2.4,2.67,2.67,0,0,0,2,.63,6,6,0,0,0,3.33-.9,16,16,0,0,0,3-2.74h1.23q-4,6.66-9.9,6.66A5.82,5.82,0,0,1,66.88,121.13Zm6.75-8.77a6.6,6.6,0,0,0,1.94-2.19,5.76,5.76,0,0,0,.74-2.81c0-1-.3-1.48-.9-1.48-.87,0-1.71.76-2.54,2.27a17.21,17.21,0,0,0-1.78,5.15A4.75,4.75,0,0,0,73.63,112.36Z" transform="translate(-5.78)"/><path class="ede2c92e-c4c6-48c3-9c5f-eaf5d249f8e0" d="M80.36,121.4a4.63,4.63,0,0,1-.88-3,8.94,8.94,0,0,1,.21-1.91L82,105.74H80.81l.29-1.44h1.18l1.08-5,5.33-.72q-.31,1.36-.36,1.62c-.17.67-.45,2-.86,4.07h2.16l-.29,1.44H87.18l-2.3,10.8a5.45,5.45,0,0,0-.18,1.26A1.13,1.13,0,0,0,86,119.09a3,3,0,0,0,.93-.1,5.77,5.77,0,0,1-1.69,2.8,3.5,3.5,0,0,1-2.12.72A3.26,3.26,0,0,1,80.36,121.4Z" transform="translate(-5.78)"/><path class="ede2c92e-c4c6-48c3-9c5f-eaf5d249f8e0" d="M108.61,122.3h-3.17V109.91H96.62V122.3H93.45V96.6h3.17v10.51h8.82V96.6h3.17Z" transform="translate(-5.78)"/><path class="ede2c92e-c4c6-48c3-9c5f-eaf5d249f8e0" d="M112.21,108.83c0-4.39,1.87-6.33,6.48-6.33,5.86,0,5.86,3.53,5.86,5.54v10.77c0,.79,0,1.54.94,1.54a1.06,1.06,0,0,0,.72-.18v2.16a10.6,10.6,0,0,1-1.76.18c-1.16,0-2.6,0-2.74-2.48h-.07A5.47,5.47,0,0,1,117,122.8c-3.6,0-5.25-2.16-5.25-5.61,0-2.7,1.15-4.58,3.64-5.33l4.06-1.23c2.2-.68,2.2-1.29,2.2-2.91,0-1.8-1.08-2.84-3.1-2.84-3.31,0-3.31,3.09-3.31,3.77v.18Zm9.32,3c-1.12,1.18-3.78,1.44-5.15,2.26a3.09,3.09,0,0,0-1.47,3.06c0,2,.68,3.31,2.73,3.31a3.93,3.93,0,0,0,3.89-3.67Z" transform="translate(-5.78)"/><path class="ede2c92e-c4c6-48c3-9c5f-eaf5d249f8e0" d="M137.84,108.87c0-1.87-.76-4-3.06-4-1.87,0-3.78.93-3.78,8,0,2.52,0,7.55,3.67,7.55,2.59,0,3.17-2.73,3.17-4.82h3c0,3.06-1.51,7.2-6.33,7.2s-6.7-3.27-6.7-9.9c0-4.82.94-10.4,6.88-10.4,5.25,0,6.15,4.14,6.15,6.37Z" transform="translate(-5.78)"/><path class="ede2c92e-c4c6-48c3-9c5f-eaf5d249f8e0" d="M158.39,122.3h-3.52l-5.37-9.54-2.48,3v6.52h-3V96.6h3v15.29h.07l6.77-8.89h3.52l-5.86,7.27Z" transform="translate(-5.78)"/><path class="ede2c92e-c4c6-48c3-9c5f-eaf5d249f8e0" d="M168.26,108.65c0-2.44-.65-3.77-2.85-3.77a2.78,2.78,0,0,0-3.13,3c0,2.26,2.38,2.7,4.75,3.49s4.72,1.62,4.72,5.43c0,4.07-2.63,6-6.23,6-6.55,0-6.62-4.86-6.62-6.84h3c0,2.34.65,4.46,3.6,4.46a3,3,0,0,0,3.2-3.2c0-2.59-2.37-3.13-4.71-3.92s-4.75-1.48-4.75-5.47c0-3.6,2.81-5.33,6.15-5.33,5.62,0,5.83,3.89,5.87,6.15Z" transform="translate(-5.78)"/><path class="5b301e28-bfec-4f45-903e-2598514a0470" d="M83.65,78.13C68,78.13,59.31,62.68,57.88,48.32,56.36,33,62.15,16.13,78.21,10.9l-4.75,7.86,4-1.45c3.87-1.39,22-8.25,24.56-15.58,1.93.39,5.49,1.52,7.39,4.62,2.07,3.4,1.74,8.34-1,14.7L107.21,24l3.07-.84a15.4,15.4,0,0,0,6.91-4.6c2.17,8.62,6.81,32.57-3.9,47.25C107.31,74,97.34,78.13,83.65,78.13Z" transform="translate(-5.78)"/><path class="5b301e28-bfec-4f45-903e-2598514a0470" d="M103,3.52a9,9,0,0,1,5.19,3.64c1.77,2.91,1.39,7.5-1.09,13.29l-2.5,5.84,6.12-1.69a16.75,16.75,0,0,0,5.65-3.09c2.2,9.92,5.14,30.47-4.28,43.38-5.67,7.77-15.23,11.71-28.4,11.71-14.72,0-22.89-14.74-24.25-28.43-1.31-13.22,3-27.67,15.07-34l-.1.15-4.44,7.36L78,18.75a118.6,118.6,0,0,0,12.33-5.37c6.78-3.47,10.9-6.67,12.61-9.86M100.82,0C101,7.27,77,15.87,77,15.87l4.46-7.39C44.08,16,50.84,79.66,83.65,79.66c54.92,0,34.11-64.81,34.11-64.81a13.48,13.48,0,0,1-7.89,6.8C118.68,1.11,100.82,0,100.82,0ZM81.45,8.48h0Z" transform="translate(-5.78)"/><path class="0aeeb2a7-d5a1-40a6-95ae-28bd913df687" d="M83.65,78.13C68,78.13,59.31,62.68,57.88,48.32,56.36,33,62.15,16.13,78.21,10.9l-4.75,7.86,4-1.45c3.87-1.39,22-8.25,24.56-15.58,1.93.39,5.49,1.52,7.39,4.62,2.07,3.4,1.74,8.34-1,14.7L107.21,24l3.07-.84a15.4,15.4,0,0,0,6.91-4.6c2.17,8.62,6.81,32.57-3.9,47.25C107.31,74,97.34,78.13,83.65,78.13Z" transform="translate(-5.78)"/><path class="5b301e28-bfec-4f45-903e-2598514a0470" d="M103,3.52a9,9,0,0,1,5.19,3.64c1.77,2.91,1.39,7.5-1.09,13.29l-2.5,5.84,6.12-1.69a16.75,16.75,0,0,0,5.65-3.09c2.2,9.92,5.14,30.47-4.28,43.38-5.67,7.77-15.23,11.71-28.4,11.71-14.72,0-22.89-14.74-24.25-28.43-1.31-13.22,3-27.67,15.07-34l-.1.15-4.44,7.36L78,18.75a118.6,118.6,0,0,0,12.33-5.37c6.78-3.47,10.9-6.67,12.61-9.86M100.82,0C101,7.27,77,15.87,77,15.87l4.46-7.39C44.08,16,50.84,79.66,83.65,79.66c54.92,0,34.11-64.81,34.11-64.81a13.48,13.48,0,0,1-7.89,6.8C118.68,1.11,100.82,0,100.82,0ZM81.45,8.48h0Z" transform="translate(-5.78)"/><path class="798c8cb7-e2ea-4866-b085-d79375a12bf9" d="M120.23,47.25l-3.71-5.8L112.81,45l-2.48-6-4,3.59s-32-26.48-47.18,3.14c0,0-7.42-21.74,16.4-33.34l-1.39,7L93,10.67l10.21-8,8.13,6.19-3.49,14.07L117.33,20Z" transform="translate(-5.78)"/><path class="798c8cb7-e2ea-4866-b085-d79375a12bf9" d="M95.21,34.37s-3.76,9.32-26.72,0L81.85,20.73Z" transform="translate(-5.78)"/><path class="bdec0214-88f4-42b0-b6d5-c68d245212d7" d="M85.57,69.43s14.63,0,19.19-8.64" transform="translate(-5.78)"/><ellipse class="81dbda5f-18c2-443d-aa83-ab408fc4ff29" cx="77.47" cy="49.22" rx="5.28" ry="3.45" transform="translate(-17.96 29.52) rotate(-20.03)"/><ellipse class="81dbda5f-18c2-443d-aa83-ab408fc4ff29" cx="96.96" cy="49.22" rx="5.28" ry="3.45" transform="translate(-16.78 36.2) rotate(-20.03)"/><path class="9dbd9ff3-93f1-40e4-a496-cbb5707a826c" d="M103,3.52a9,9,0,0,1,5.19,3.64c1.77,2.91,1.39,7.5-1.09,13.29l-2.5,5.84,6.12-1.69a16.75,16.75,0,0,0,5.65-3.09c2.2,9.92,5.14,30.47-4.28,43.38-5.67,7.77-15.23,11.72-28.4,11.72-14.72,0-22.89-14.75-24.25-28.44-1.31-13.22,3-27.67,15.07-34l-.1.15-4.44,7.36L78,18.75a118.6,118.6,0,0,0,12.33-5.37c6.78-3.47,10.9-6.67,12.61-9.86M100.82,0C101,7.27,77,15.87,77,15.87l4.46-7.39C44.08,16,50.84,79.66,83.65,79.66c54.92,0,34.11-64.81,34.11-64.81a13.48,13.48,0,0,1-7.89,6.8C118.68,1.11,100.82,0,100.82,0ZM81.45,8.48h0Z" transform="translate(-5.78)"/></g></g></svg>