<svg xmlns="http://www.w3.org/2000/svg" viewBox="0 0 164.23 27.58"><defs><style>.e59b992d-3dbc-488c-aa61-5ba4d5099de2{fill:#fff;opacity:0.95;}</style></defs><title>Asset 3</title><g id="283ff18a-c3ba-488d-9188-05cb3e57dd8a" data-name="Layer 2"><g id="493d1b16-a609-4f05-86e4-2dc6f427601c" data-name="Layer 1"><path class="e59b992d-3dbc-488c-aa61-5ba4d5099de2" d="M2.59,30Q.69,27.94.68,23.18A29,29,0,0,1,2,15.05,18.65,18.65,0,0,1,6.07,7.58a9.25,9.25,0,0,1,7.18-3.12A7.3,7.3,0,0,1,17.6,5.65a4.17,4.17,0,0,1,1.66,3.64,4.2,4.2,0,0,1-.61,2.43,2.17,2.17,0,0,1-1.91.88,2.48,2.48,0,0,1-2-.94,2.8,2.8,0,0,0,1.15-1.29,4.28,4.28,0,0,0,.5-2,2.33,2.33,0,0,0-.52-1.58,2.07,2.07,0,0,0-1.67-.61c-1.27,0-2.49.87-3.64,2.61a22.48,22.48,0,0,0-2.79,6.57A29.32,29.32,0,0,0,6.66,23a7.62,7.62,0,0,0,.94,4.17A3.72,3.72,0,0,0,11,28.58a8.39,8.39,0,0,0,3.92-.93A9.06,9.06,0,0,0,18,25l.83.36a9.37,9.37,0,0,1-2.67,3.78A11.88,11.88,0,0,1,8.57,32C5.86,32,3.86,31.36,2.59,30Z" transform="translate(-0.68 -4.46)"/><path class="e59b992d-3dbc-488c-aa61-5ba4d5099de2" d="M18.94,30.24a5.45,5.45,0,0,1-1.55-4.32,17,17,0,0,1,1-5.44,12.79,12.79,0,0,1,3.24-5.16,7.71,7.71,0,0,1,5.61-2.18q4.61,0,4.61,5.76v0a1.71,1.71,0,0,0,.4,0A7.38,7.38,0,0,0,35,18.34a13.75,13.75,0,0,0,2.81-1.53l.32,1a8.39,8.39,0,0,1-2.71,1.89,13.8,13.8,0,0,1-3.66,1.1,16.35,16.35,0,0,1-1.47,5.73,9.89,9.89,0,0,1-3.06,3.78,7,7,0,0,1-4.07,1.33A6.13,6.13,0,0,1,18.94,30.24Zm7.38-2.86a9,9,0,0,0,1.51-2.7,17.47,17.47,0,0,0,.93-3.8c-.64-.14-1-.65-1-1.51a1.89,1.89,0,0,1,1.12-1.95,3.73,3.73,0,0,0-.36-1.63,1.1,1.1,0,0,0-1-.45c-.79,0-1.56.57-2.3,1.72a15.13,15.13,0,0,0-1.8,4.14,15.76,15.76,0,0,0-.69,4.25,4.52,4.52,0,0,0,.4,2.32,1.59,1.59,0,0,0,1.44.6A2.4,2.4,0,0,0,26.32,27.38Z" transform="translate(-0.68 -4.46)"/><path class="e59b992d-3dbc-488c-aa61-5ba4d5099de2" d="M52.36,30.51a4.27,4.27,0,0,1-1-2.9,8.66,8.66,0,0,1,.19-1.71c.11-.63.24-1.25.37-1.85s.23-1,.27-1.15q.3-1.26.54-2.49a10.14,10.14,0,0,0,.26-2c0-1.22-.44-1.83-1.3-1.83a2.09,2.09,0,0,0-1.66.91,7.15,7.15,0,0,0-1.15,2.4L46.4,31.46H41.22L43.85,19a3.7,3.7,0,0,0,.11-.9c0-1.05-.36-1.58-1.08-1.58a2.19,2.19,0,0,0-1.75.92A6.88,6.88,0,0,0,40,19.91L37.51,31.46H32.33l3.81-18h5.19l-.4,1.88a5.71,5.71,0,0,1,4.39-2.06A3.39,3.39,0,0,1,49,16.38a5.83,5.83,0,0,1,5-3.06,4.1,4.1,0,0,1,2.91,1A4,4,0,0,1,58,17.39a11.94,11.94,0,0,1-.25,2.32c-.17.85-.41,1.89-.72,3.11-.19.75-.37,1.47-.52,2.18a8.14,8.14,0,0,0-.24,1.68,1.67,1.67,0,0,0,.33,1.11,1.33,1.33,0,0,0,1.11.4,2.13,2.13,0,0,0,1.73-.78A9.23,9.23,0,0,0,60.77,25h1.51c-.89,2.64-1.91,4.41-3.08,5.31a5.84,5.84,0,0,1-3.62,1.35A4.06,4.06,0,0,1,52.36,30.51Z" transform="translate(-0.68 -4.46)"/><path class="e59b992d-3dbc-488c-aa61-5ba4d5099de2" d="M61.78,30.29A5.66,5.66,0,0,1,60.3,26a17.82,17.82,0,0,1,1-5.48,12.75,12.75,0,0,1,3.17-5.16A7.59,7.59,0,0,1,70,13.14q4,0,4,3.46a6.4,6.4,0,0,1-1.15,3.7A8.48,8.48,0,0,1,69.77,23a9.7,9.7,0,0,1-4.07,1.17c0,.72-.07,1.2-.07,1.44a3.48,3.48,0,0,0,.61,2.4,2.67,2.67,0,0,0,2,.63,6,6,0,0,0,3.33-.9,16.32,16.32,0,0,0,3-2.74h1.23q-4,6.66-9.9,6.66A5.78,5.78,0,0,1,61.78,30.29Zm6.75-8.76a6.64,6.64,0,0,0,1.94-2.2,5.73,5.73,0,0,0,.74-2.81q0-1.47-.9-1.47c-.87,0-1.71.75-2.54,2.27A17.15,17.15,0,0,0,66,22.46,4.74,4.74,0,0,0,68.53,21.53Z" transform="translate(-0.68 -4.46)"/><path class="e59b992d-3dbc-488c-aa61-5ba4d5099de2" d="M75.26,30.56a4.59,4.59,0,0,1-.88-2.95,9.08,9.08,0,0,1,.21-1.91l2.3-10.8H75.71L76,13.46h1.18l1.08-5,5.33-.72c-.21.91-.34,1.45-.36,1.62-.17.67-.46,2-.86,4.06h2.16l-.29,1.44H82.08L79.77,25.7A6.06,6.06,0,0,0,79.59,27a1.13,1.13,0,0,0,1.26,1.3,2.94,2.94,0,0,0,.94-.11A5.81,5.81,0,0,1,80.1,31a3.51,3.51,0,0,1-2.13.72A3.22,3.22,0,0,1,75.26,30.56Z" transform="translate(-0.68 -4.46)"/><path class="e59b992d-3dbc-488c-aa61-5ba4d5099de2" d="M101.77,31.46H98.6V19.08H89.78V31.46H86.61V5.76h3.17V16.27H98.6V5.76h3.17Z" transform="translate(-0.68 -4.46)"/><path class="e59b992d-3dbc-488c-aa61-5ba4d5099de2" d="M105.37,18c0-4.39,1.87-6.33,6.48-6.33,5.87,0,5.87,3.52,5.87,5.54V28c0,.79,0,1.55.93,1.55a1.06,1.06,0,0,0,.72-.18V31.5a10.47,10.47,0,0,1-1.76.18c-1.15,0-2.59,0-2.74-2.48h-.07A5.47,5.47,0,0,1,110.16,32c-3.6,0-5.26-2.16-5.26-5.62,0-2.7,1.15-4.57,3.64-5.32l4.06-1.23c2.2-.68,2.2-1.29,2.2-2.91,0-1.8-1.08-2.85-3.1-2.85-3.31,0-3.31,3.1-3.31,3.78V18ZM114.69,21c-1.11,1.19-3.78,1.44-5.15,2.27a3.08,3.08,0,0,0-1.47,3.06c0,1.94.68,3.31,2.73,3.31a3.93,3.93,0,0,0,3.89-3.67Z" transform="translate(-0.68 -4.46)"/><path class="e59b992d-3dbc-488c-aa61-5ba4d5099de2" d="M131,18c0-1.87-.76-4-3.06-4-1.87,0-3.78.94-3.78,8,0,2.52,0,7.56,3.67,7.56,2.59,0,3.17-2.73,3.17-4.82h3c0,3.06-1.51,7.2-6.33,7.2s-6.7-3.28-6.7-9.9c0-4.82.94-10.4,6.88-10.4,5.25,0,6.15,4.14,6.15,6.37Z" transform="translate(-0.68 -4.46)"/><path class="e59b992d-3dbc-488c-aa61-5ba4d5099de2" d="M151.55,31.46H148l-5.37-9.54-2.48,3v6.51h-3V5.76h3v15.3h.07L147,12.17h3.53l-5.87,7.27Z" transform="translate(-0.68 -4.46)"/><path class="e59b992d-3dbc-488c-aa61-5ba4d5099de2" d="M161.42,17.82c0-2.45-.65-3.78-2.84-3.78-1,0-3.14.25-3.14,2.95,0,2.27,2.38,2.7,4.76,3.5s4.71,1.62,4.71,5.43c0,4.07-2.63,6-6.23,6-6.55,0-6.62-4.86-6.62-6.84h3c0,2.34.65,4.46,3.6,4.46a3,3,0,0,0,3.21-3.2c0-2.59-2.38-3.13-4.72-3.93S152.42,21,152.42,17c0-3.6,2.81-5.32,6.16-5.32,5.61,0,5.83,3.88,5.86,6.15Z" transform="translate(-0.68 -4.46)"/></g></g></svg>