<svg id="e65a42d3-0829-41b7-b7aa-0ca09b589c30" data-name="Layer 1" xmlns="http://www.w3.org/2000/svg" viewBox="0 0 315 100"><defs><style>.\37 bff073c-9c5c-4619-9a9e-044bb50dc3d2,.\39 484c39a-9448-4dd5-af63-60046d7183b2{fill:#fff;}.\37 bff073c-9c5c-4619-9a9e-044bb50dc3d2{opacity:0.95;}.\37 6be2b81-ce39-4d77-add3-18330ce866ad{fill:#fbb03b;}.\32 1e48db9-b287-44bc-8c80-a59266d39d54,.\36 42aa84a-efe0-4cb9-859f-976ff7adc541,.edf4a7ad-3588-42f8-84c1-95f5734faf37{fill:#f7931e;}.\32 1e48db9-b287-44bc-8c80-a59266d39d54,.\32 308ab9f-e909-43d9-a94d-6018052fe799,.\36 42aa84a-efe0-4cb9-859f-976ff7adc541{stroke:#f7931e;stroke-miterlimit:10;}.\32 1e48db9-b287-44bc-8c80-a59266d39d54{stroke-width:1.02px;}.\32 308ab9f-e909-43d9-a94d-6018052fe799{fill:none;}.\32 308ab9f-e909-43d9-a94d-6018052fe799,.\36 42aa84a-efe0-4cb9-859f-976ff7adc541{stroke-linecap:round;stroke-width:3.05px;}</style></defs><title>Artboard 2</title><path class="7bff073c-9c5c-4619-9a9e-044bb50dc3d2" d="M114.38,60q-1.91-2.05-1.9-6.81A29,29,0,0,1,113.75,45a18.77,18.77,0,0,1,4.11-7.47A9.26,9.26,0,0,1,125,34.45a7.35,7.35,0,0,1,4.36,1.19,4.19,4.19,0,0,1,1.65,3.64,4.2,4.2,0,0,1-.61,2.43,2.15,2.15,0,0,1-1.91.88,2.48,2.48,0,0,1-2-.94,2.79,2.79,0,0,0,1.15-1.29,4.3,4.3,0,0,0,.51-2,2.34,2.34,0,0,0-.53-1.58,2.06,2.06,0,0,0-1.67-.61q-1.91,0-3.64,2.6a22.66,22.66,0,0,0-2.79,6.58A29.75,29.75,0,0,0,118.45,53a7.62,7.62,0,0,0,.94,4.17,3.72,3.72,0,0,0,3.38,1.44,8.43,8.43,0,0,0,3.93-.93A9,9,0,0,0,129.79,55l.83.36A9.52,9.52,0,0,1,128,59.11a11.88,11.88,0,0,1-7.6,2.92C117.65,62,115.66,61.34,114.38,60Z"/><path class="7bff073c-9c5c-4619-9a9e-044bb50dc3d2" d="M130.73,60.23a5.45,5.45,0,0,1-1.55-4.32,17.3,17.3,0,0,1,1-5.44,12.79,12.79,0,0,1,3.24-5.16A7.71,7.71,0,0,1,139,43.13q4.61,0,4.61,5.76v0a1.24,1.24,0,0,0,.4,0,7.38,7.38,0,0,0,2.73-.63,13.49,13.49,0,0,0,2.81-1.53l.33,1a8.55,8.55,0,0,1-2.72,1.89,14.18,14.18,0,0,1-3.66,1.1,16.35,16.35,0,0,1-1.47,5.73A9.69,9.69,0,0,1,139,60.26a6.89,6.89,0,0,1-4.07,1.34A6.13,6.13,0,0,1,130.73,60.23Zm7.38-2.86a9,9,0,0,0,1.51-2.7,18.06,18.06,0,0,0,.94-3.8c-.65-.14-1-.65-1-1.51a1.89,1.89,0,0,1,1.12-2,3.73,3.73,0,0,0-.36-1.63,1.1,1.1,0,0,0-1-.45c-.79,0-1.56.57-2.3,1.72a15.13,15.13,0,0,0-1.8,4.14,15.76,15.76,0,0,0-.69,4.25,4.52,4.52,0,0,0,.4,2.32,1.59,1.59,0,0,0,1.44.6A2.39,2.39,0,0,0,138.11,57.37Z"/><path class="7bff073c-9c5c-4619-9a9e-044bb50dc3d2" d="M164.15,60.5a4.26,4.26,0,0,1-1-2.9,9.39,9.39,0,0,1,.18-1.71c.12-.63.24-1.25.38-1.85s.22-1,.26-1.16c.2-.84.38-1.66.54-2.48a10.24,10.24,0,0,0,.26-2c0-1.22-.43-1.84-1.3-1.84a2.12,2.12,0,0,0-1.66.92,7.15,7.15,0,0,0-1.15,2.4l-2.45,11.55H153L155.64,49a3.7,3.7,0,0,0,.11-.9c0-1.05-.36-1.58-1.08-1.58a2.19,2.19,0,0,0-1.75.92,6.88,6.88,0,0,0-1.17,2.43L149.3,61.45h-5.18l3.82-18h5.18l-.4,1.88a5.71,5.71,0,0,1,4.39-2.06,3.38,3.38,0,0,1,3.71,3.1,5.83,5.83,0,0,1,5-3.06,4.1,4.1,0,0,1,2.91,1,4,4,0,0,1,1.08,3.06,11.94,11.94,0,0,1-.25,2.32c-.17.85-.41,1.89-.72,3.11-.19.75-.36,1.47-.52,2.18a8,8,0,0,0-.23,1.68,1.67,1.67,0,0,0,.32,1.11,1.35,1.35,0,0,0,1.11.4,2.13,2.13,0,0,0,1.73-.78,8.94,8.94,0,0,0,1.3-2.39h1.51c-.89,2.64-1.91,4.41-3.08,5.31a5.84,5.84,0,0,1-3.62,1.35A4.08,4.08,0,0,1,164.15,60.5Z"/><path class="7bff073c-9c5c-4619-9a9e-044bb50dc3d2" d="M173.57,60.28A5.66,5.66,0,0,1,172.09,56a18.12,18.12,0,0,1,1-5.48,12.75,12.75,0,0,1,3.17-5.16,7.61,7.61,0,0,1,5.58-2.18q4,0,4,3.45a6.41,6.41,0,0,1-1.15,3.71A8.48,8.48,0,0,1,181.56,53a9.7,9.7,0,0,1-4.07,1.17c-.05.72-.07,1.2-.07,1.44A3.44,3.44,0,0,0,178,58a2.63,2.63,0,0,0,2,.64,6,6,0,0,0,3.33-.9,16,16,0,0,0,3-2.74h1.23q-4,6.66-9.9,6.66A5.78,5.78,0,0,1,173.57,60.28Zm6.75-8.76a6.64,6.64,0,0,0,1.94-2.2,5.73,5.73,0,0,0,.74-2.81q0-1.47-.9-1.47c-.86,0-1.71.75-2.54,2.26a17.31,17.31,0,0,0-1.78,5.15A4.74,4.74,0,0,0,180.32,51.52Z"/><path class="7bff073c-9c5c-4619-9a9e-044bb50dc3d2" d="M187.05,60.55a4.59,4.59,0,0,1-.88-2.95,9.08,9.08,0,0,1,.21-1.91l2.31-10.8H187.5l.29-1.44H189l1.08-5,5.33-.73q-.31,1.38-.36,1.62c-.17.68-.45,2-.86,4.07h2.16L196,44.89h-2.16l-2.3,10.8a6.06,6.06,0,0,0-.18,1.26,1.13,1.13,0,0,0,1.26,1.3,2.91,2.91,0,0,0,.93-.11A5.81,5.81,0,0,1,191.89,61a3.5,3.5,0,0,1-2.12.72A3.24,3.24,0,0,1,187.05,60.55Z"/><path class="7bff073c-9c5c-4619-9a9e-044bb50dc3d2" d="M213.56,61.45h-3.17V49.07h-8.82V61.45h-3.16V35.75h3.16V46.26h8.82V35.75h3.17Z"/><path class="7bff073c-9c5c-4619-9a9e-044bb50dc3d2" d="M217.16,48c0-4.39,1.87-6.33,6.48-6.33,5.87,0,5.87,3.52,5.87,5.54V58c0,.79,0,1.55.93,1.55a1.06,1.06,0,0,0,.72-.18v2.16a10.47,10.47,0,0,1-1.76.18c-1.15,0-2.59,0-2.74-2.48h-.07A5.47,5.47,0,0,1,222,62c-3.6,0-5.26-2.16-5.26-5.62,0-2.7,1.15-4.57,3.64-5.33l4.07-1.22c2.19-.68,2.19-1.29,2.19-2.91,0-1.8-1.08-2.85-3.09-2.85-3.32,0-3.32,3.1-3.32,3.78V48Zm9.32,2.95c-1.11,1.19-3.78,1.44-5.14,2.27a3.07,3.07,0,0,0-1.48,3.06c0,1.94.68,3.31,2.74,3.31a3.92,3.92,0,0,0,3.88-3.67Z"/><path class="7bff073c-9c5c-4619-9a9e-044bb50dc3d2" d="M242.79,48c0-1.87-.76-4-3.06-4-1.87,0-3.78.94-3.78,8,0,2.52,0,7.56,3.67,7.56,2.6,0,3.17-2.73,3.17-4.82h3c0,3.06-1.52,7.2-6.34,7.2s-6.7-3.28-6.7-9.9c0-4.82.94-10.4,6.88-10.4,5.25,0,6.16,4.13,6.16,6.37Z"/><path class="7bff073c-9c5c-4619-9a9e-044bb50dc3d2" d="M263.35,61.45h-3.53l-5.36-9.54-2.49,3v6.51h-3V35.75h3v15.3H252l6.77-8.89h3.53l-5.87,7.27Z"/><path class="7bff073c-9c5c-4619-9a9e-044bb50dc3d2" d="M273.21,47.81c0-2.45-.65-3.78-2.84-3.78A2.78,2.78,0,0,0,267.24,47c0,2.27,2.37,2.7,4.75,3.49s4.71,1.62,4.71,5.44c0,4.07-2.63,6.05-6.22,6.05-6.56,0-6.63-4.86-6.63-6.84h3c0,2.34.64,4.46,3.6,4.46a3,3,0,0,0,3.2-3.2c0-2.59-2.38-3.13-4.72-3.93S264.21,51,264.21,47c0-3.6,2.81-5.32,6.16-5.32,5.61,0,5.83,3.88,5.86,6.15Z"/><path class="76be2b81-ce39-4d77-add3-18330ce866ad" d="M52.42,92.15c-17.27,0-26.83-17-28.4-32.83-1.69-17,4.8-35.69,22.76-41.3l-5.19,8.59,4-1.44C49.89,23.64,70,16.06,72.51,8c2.12.42,6.18,1.65,8.33,5.17,2.31,3.76,2,9.23-1.07,16.26l-1.25,2.92,3.06-.85a16.61,16.61,0,0,0,7.7-5.21c2.35,9.22,7.67,35.9-4.23,52.22C78.46,87.57,67.49,92.15,52.42,92.15Z"/><path class="76be2b81-ce39-4d77-add3-18330ce866ad" d="M73.45,9.83A10.35,10.35,0,0,1,79.55,14c2,3.27,1.58,8.4-1.18,14.84l-2.5,5.85L82,33a18.14,18.14,0,0,0,6.46-3.65c2.43,10.73,5.93,33.8-4.63,48.28-6.28,8.62-16.85,13-31.39,13C36.1,90.63,27,74.32,25.54,59.17c-1.49-14.93,3.57-31.3,17.6-38.08l-.64,1.06L38.06,29.5l8.09-2.9a126.83,126.83,0,0,0,13.49-5.87c7.54-3.86,12-7.39,13.81-10.9m-2.2-3.51c.17,8-26.13,17.41-26.13,17.41L50,15.62C9,23.85,16.44,93.68,52.43,93.68c60.22,0,37.4-71.08,37.4-71.08a14.76,14.76,0,0,1-8.65,7.47C90.84,7.53,71.25,6.32,71.25,6.32ZM50,15.62Z"/><path class="9484c39a-9448-4dd5-af63-60046d7183b2" d="M52.42,92.15c-17.27,0-26.83-17-28.4-32.83-1.69-17,4.8-35.69,22.76-41.3l-5.19,8.59,4-1.44C49.89,23.64,70,16.06,72.51,8c2.12.42,6.18,1.65,8.33,5.17,2.31,3.76,2,9.23-1.07,16.26l-1.25,2.92,3.06-.85a16.61,16.61,0,0,0,7.7-5.21c2.35,9.22,7.67,35.9-4.23,52.22C78.46,87.57,67.49,92.15,52.42,92.15Z"/><path class="76be2b81-ce39-4d77-add3-18330ce866ad" d="M73.45,9.83A10.35,10.35,0,0,1,79.55,14c2,3.27,1.58,8.4-1.18,14.84l-2.5,5.85L82,33a18.14,18.14,0,0,0,6.46-3.65c2.43,10.73,5.93,33.8-4.63,48.28-6.28,8.62-16.85,13-31.39,13C36.1,90.63,27,74.32,25.54,59.17c-1.49-14.93,3.57-31.3,17.6-38.08l-.64,1.06L38.06,29.5l8.09-2.9a126.83,126.83,0,0,0,13.49-5.87c7.54-3.86,12-7.39,13.81-10.9m-2.2-3.51c.17,8-26.13,17.41-26.13,17.41L50,15.62C9,23.85,16.44,93.68,52.43,93.68c60.22,0,37.4-71.08,37.4-71.08a14.76,14.76,0,0,1-8.65,7.47C90.84,7.53,71.25,6.32,71.25,6.32ZM50,15.62Z"/><path class="21e48db9-b287-44bc-8c80-a59266d39d54" d="M92.54,58.14l-4.07-6.36-4.07,3.9-2.71-6.61L77.28,53S42.16,24,25.54,56.45c0,0-8.14-23.84,18-36.56L42,27.52,62.69,18,73.88,9.2,82.81,16,79,31.43l10.39-3.14Z"/><path class="21e48db9-b287-44bc-8c80-a59266d39d54" d="M65.1,44S61,54.23,35.79,44l14.66-15Z"/><path class="2308ab9f-e909-43d9-a94d-6018052fe799" d="M54.53,82.47s16,0,21-9.48"/><ellipse class="642aa84a-efe0-4cb9-859f-976ff7adc541" cx="45.65" cy="60.3" rx="5.8" ry="3.78" transform="translate(-17.9 19.29) rotate(-20.03)"/><ellipse class="642aa84a-efe0-4cb9-859f-976ff7adc541" cx="67.02" cy="60.3" rx="5.8" ry="3.78" transform="translate(-16.6 26.61) rotate(-20.03)"/><path class="edf4a7ad-3588-42f8-84c1-95f5734faf37" d="M73.45,9.83A10.3,10.3,0,0,1,79.55,14c2,3.27,1.58,8.4-1.18,14.84l-2.5,5.85L82,33a18.14,18.14,0,0,0,6.46-3.65c2.43,10.73,5.93,33.8-4.63,48.28-6.28,8.62-16.85,13-31.39,13C36.1,90.63,27,74.32,25.54,59.17c-1.49-14.93,3.57-31.3,17.6-38.08l-.64,1.06L38.06,29.5l8.09-2.9a126.83,126.83,0,0,0,13.49-5.87c7.54-3.86,12-7.4,13.81-10.9m-2.2-3.51c.17,8-26.13,17.41-26.13,17.41L50,15.62C9,23.85,16.44,93.68,52.43,93.68c60.22,0,37.4-71.08,37.4-71.08a14.76,14.76,0,0,1-8.65,7.47C90.84,7.53,71.25,6.32,71.25,6.32ZM50,15.62Z"/></svg>